<svg id="svg" version="1.1" xmlns="http://www.w3.org/2000/svg" xmlns:xlink="http://www.w3.org/1999/xlink" width="400" height="400" viewBox="0, 0, 400,400"><g id="svgg"><path id="path0" d="M192.496 112.393 C 192.363 112.526,185.277 112.648,165.917 112.851 C 155.742 112.958,147.237 113.113,147.017 113.195 C 146.090 113.540,147.131 118.818,148.850 122.491 C 153.010 131.378,161.669 136.213,172.071 135.457 C 175.682 135.194,199.298 135.220,201.760 135.489 C 207.115 136.074,211.145 137.533,215.686 140.529 C 218.290 142.247,222.656 146.510,223.766 148.417 C 224.737 150.085,224.465 150.021,230.083 149.921 C 232.742 149.874,238.142 149.791,242.083 149.737 C 249.469 149.635,249.668 149.614,249.665 148.938 C 249.663 148.389,247.821 144.251,246.486 141.795 C 237.583 125.417,222.195 114.894,203.974 112.725 C 201.745 112.460,192.691 112.198,192.496 112.393 M236.121 154.667 C 226.993 154.785,227.302 154.744,227.622 155.793 C 227.726 156.136,228.005 157.048,228.242 157.819 C 230.043 163.696,230.142 169.982,228.548 177.265 C 228.354 178.147,228.663 178.199,233.482 178.097 C 235.921 178.045,240.992 177.957,244.750 177.901 C 252.118 177.792,252.078 177.798,252.314 176.872 C 253.415 172.571,253.172 162.080,251.828 155.873 C 251.487 154.299,253.356 154.442,236.121 154.667 M156.387 155.499 C 144.890 158.512,144.815 174.785,156.283 178.046 L 157.583 178.415 190.000 178.463 C 207.829 178.490,222.580 178.471,222.780 178.422 C 224.534 177.991,225.889 168.816,225.020 163.250 C 224.575 160.396,223.305 156.298,222.618 155.496 C 222.187 154.992,158.310 154.994,156.387 155.499 M237.986 182.736 C 237.948 182.774,235.479 182.853,232.500 182.912 C 229.521 182.970,226.933 183.048,226.750 183.085 C 226.529 183.130,226.055 183.789,225.346 185.035 C 222.895 189.342,222.338 190.035,219.499 192.312 C 216.348 194.840,210.655 198.104,207.876 198.977 C 204.086 200.167,202.152 200.325,189.083 200.504 C 168.010 200.795,166.468 200.880,163.359 201.934 C 154.824 204.827,148.007 214.006,148.001 222.615 C 148.000 223.796,147.664 223.742,154.655 223.701 C 165.589 223.638,170.910 224.794,177.574 228.679 C 184.247 232.570,185.992 234.492,199.425 252.750 C 207.027 263.082,210.183 267.127,212.667 269.721 C 221.890 279.357,233.377 285.181,246.417 286.835 C 247.883 287.021,249.636 287.291,250.312 287.436 C 251.981 287.793,253.500 287.426,253.500 286.665 C 253.500 286.503,252.060 284.469,250.301 282.144 C 248.541 279.819,246.010 276.449,244.676 274.656 C 243.342 272.863,237.108 264.538,230.823 256.156 C 212.270 231.413,212.345 231.526,212.337 228.243 C 212.325 223.307,213.980 221.256,220.434 218.205 C 235.540 211.064,244.964 200.539,250.438 184.697 L 250.917 183.310 250.523 182.988 C 250.157 182.689,238.272 182.450,237.986 182.736 " stroke="none" fill="#fbfafa" fill-rule="evenodd"></path><path id="path1" d="M188.000 74.833 C 188.000 74.937,187.028 75.000,185.417 75.000 C 183.231 75.000,182.833 75.039,182.833 75.250 C 182.833 75.457,182.518 75.500,180.995 75.500 C 179.514 75.500,179.138 75.549,179.060 75.750 C 178.987 75.941,178.674 76.000,177.732 76.000 C 176.722 76.000,176.440 76.060,176.167 76.333 C 175.893 76.607,175.611 76.667,174.583 76.667 C 173.583 76.667,173.333 76.717,173.333 76.917 C 173.333 77.118,173.073 77.167,171.995 77.167 C 170.959 77.167,170.635 77.223,170.560 77.417 C 170.494 77.589,170.223 77.667,169.691 77.669 C 168.679 77.672,168.167 77.818,168.167 78.103 C 168.167 78.274,167.905 78.333,167.151 78.333 C 166.276 78.333,166.123 78.379,166.048 78.667 C 165.975 78.948,165.821 79.000,165.064 79.000 C 164.377 79.000,164.167 79.059,164.167 79.250 C 164.167 79.434,163.974 79.500,163.434 79.500 C 162.937 79.500,162.672 79.580,162.606 79.750 C 162.536 79.934,162.244 80.000,161.500 80.000 C 160.756 80.000,160.464 80.066,160.394 80.250 C 160.337 80.398,160.085 80.500,159.774 80.501 C 159.486 80.502,159.025 80.651,158.750 80.833 C 158.475 81.015,158.081 81.165,157.875 81.166 C 157.653 81.166,157.500 81.269,157.500 81.417 C 157.500 81.603,157.304 81.667,156.734 81.667 C 156.109 81.667,155.953 81.728,155.882 82.000 C 155.809 82.276,155.654 82.333,154.981 82.333 C 154.368 82.333,154.167 82.395,154.167 82.583 C 154.167 82.758,153.991 82.833,153.583 82.833 C 153.176 82.833,153.000 82.909,153.000 83.083 C 153.000 83.257,152.826 83.333,152.430 83.333 C 151.696 83.333,151.333 83.477,151.333 83.768 C 151.333 83.922,151.137 84.000,150.750 84.000 C 150.343 84.000,150.167 84.075,150.167 84.250 C 150.167 84.435,149.972 84.500,149.411 84.500 C 148.894 84.500,148.626 84.579,148.560 84.750 C 148.508 84.887,148.328 85.000,148.162 85.000 C 147.682 85.000,147.333 85.183,147.333 85.434 C 147.333 85.582,147.149 85.667,146.828 85.667 C 146.533 85.667,146.283 85.771,146.227 85.917 C 146.174 86.054,145.945 86.167,145.717 86.167 C 145.442 86.167,145.273 86.279,145.215 86.500 C 145.149 86.750,144.988 86.833,144.564 86.833 C 144.174 86.833,144.000 86.910,144.000 87.083 C 144.000 87.251,143.833 87.333,143.495 87.333 C 143.199 87.333,142.950 87.437,142.894 87.583 C 142.839 87.726,142.590 87.833,142.316 87.833 C 142.005 87.833,141.833 87.919,141.833 88.076 C 141.833 88.221,141.599 88.362,141.250 88.428 C 140.916 88.490,140.667 88.636,140.667 88.769 C 140.667 88.916,140.480 89.000,140.151 89.000 C 139.776 89.000,139.612 89.091,139.548 89.333 C 139.486 89.570,139.321 89.667,138.975 89.667 C 138.697 89.667,138.449 89.774,138.394 89.917 C 138.341 90.054,138.193 90.167,138.066 90.167 C 137.938 90.167,137.833 90.279,137.833 90.417 C 137.833 90.584,137.666 90.667,137.328 90.667 C 137.042 90.667,136.783 90.771,136.731 90.906 C 136.680 91.038,136.415 91.195,136.141 91.256 C 135.868 91.316,135.604 91.470,135.554 91.599 C 135.505 91.728,135.289 91.833,135.074 91.833 C 134.859 91.833,134.623 91.933,134.550 92.054 C 134.477 92.176,134.285 92.323,134.125 92.382 C 133.965 92.441,133.833 92.604,133.833 92.745 C 133.833 92.918,133.671 93.000,133.328 93.000 C 133.033 93.000,132.783 93.104,132.727 93.250 C 132.674 93.388,132.535 93.500,132.418 93.500 C 132.301 93.500,132.166 93.650,132.118 93.833 C 132.059 94.060,131.891 94.167,131.594 94.167 C 131.353 94.167,131.113 94.279,131.060 94.417 C 131.008 94.554,130.860 94.667,130.732 94.667 C 130.604 94.667,130.500 94.779,130.500 94.917 C 130.500 95.075,130.341 95.167,130.065 95.167 C 129.610 95.167,128.841 95.766,128.836 96.125 C 128.835 96.246,128.618 96.333,128.318 96.333 C 127.942 96.333,127.778 96.424,127.715 96.667 C 127.667 96.850,127.524 97.000,127.397 97.000 C 127.270 97.000,127.167 97.112,127.167 97.250 C 127.167 97.417,126.999 97.500,126.661 97.500 C 126.366 97.500,126.116 97.604,126.060 97.750 C 126.008 97.888,125.889 98.000,125.797 98.000 C 125.555 98.000,124.840 98.713,124.836 98.958 C 124.835 99.078,124.621 99.167,124.333 99.167 C 124.000 99.167,123.833 99.250,123.833 99.417 C 123.833 99.554,123.714 99.667,123.568 99.667 C 123.422 99.667,123.263 99.817,123.215 100.000 C 123.167 100.184,122.988 100.333,122.814 100.333 C 122.641 100.333,122.500 100.446,122.500 100.583 C 122.500 100.732,122.347 100.833,122.124 100.833 C 121.907 100.833,121.521 101.080,121.212 101.417 C 120.918 101.737,120.600 102.000,120.505 102.000 C 120.411 102.000,120.333 102.112,120.333 102.250 C 120.333 102.388,120.221 102.500,120.083 102.500 C 119.946 102.500,119.833 102.607,119.833 102.737 C 119.833 102.867,119.603 103.024,119.322 103.086 C 119.041 103.148,118.770 103.304,118.721 103.432 C 118.671 103.561,118.532 103.667,118.410 103.667 C 118.289 103.667,118.142 103.817,118.083 104.000 C 118.025 104.183,117.870 104.333,117.739 104.333 C 117.607 104.333,117.500 104.446,117.500 104.583 C 117.500 104.721,117.388 104.833,117.250 104.833 C 117.112 104.833,117.000 104.946,117.000 105.083 C 117.000 105.221,116.920 105.333,116.822 105.333 C 116.724 105.333,116.397 105.596,116.094 105.917 C 115.792 106.237,115.459 106.500,115.355 106.500 C 115.252 106.500,115.167 106.607,115.167 106.737 C 115.167 106.867,114.942 107.023,114.667 107.083 C 114.392 107.144,114.167 107.300,114.167 107.430 C 114.167 107.560,114.054 107.667,113.917 107.667 C 113.779 107.667,113.667 107.779,113.667 107.917 C 113.667 108.054,113.595 108.167,113.508 108.167 C 113.301 108.167,112.500 108.968,112.500 109.174 C 112.500 109.262,112.417 109.333,112.315 109.333 C 112.059 109.333,111.340 110.038,111.336 110.292 C 111.335 110.406,111.221 110.500,111.083 110.500 C 110.946 110.500,110.833 110.612,110.833 110.750 C 110.833 110.888,110.750 111.000,110.648 111.000 C 110.392 111.000,109.673 111.704,109.670 111.958 C 109.668 112.073,109.592 112.167,109.500 112.167 C 109.408 112.167,109.033 112.467,108.667 112.833 C 108.300 113.200,108.000 113.575,108.000 113.667 C 108.000 113.758,107.893 113.833,107.761 113.833 C 107.630 113.833,107.475 113.983,107.417 114.167 C 107.358 114.350,107.203 114.500,107.072 114.500 C 106.918 114.500,106.833 114.677,106.833 115.000 C 106.833 115.333,106.750 115.500,106.583 115.500 C 106.446 115.500,106.333 115.612,106.333 115.750 C 106.333 115.888,106.250 116.000,106.148 116.000 C 105.892 116.000,105.173 116.704,105.170 116.958 C 105.168 117.073,105.047 117.167,104.901 117.167 C 104.755 117.167,104.596 117.317,104.548 117.500 C 104.500 117.683,104.357 117.833,104.231 117.833 C 104.104 117.833,104.000 117.946,104.000 118.083 C 104.000 118.221,103.888 118.333,103.750 118.333 C 103.612 118.333,103.500 118.438,103.500 118.566 C 103.500 118.693,103.395 118.838,103.266 118.888 C 103.137 118.937,102.981 119.208,102.919 119.489 C 102.857 119.770,102.700 120.000,102.570 120.000 C 102.440 120.000,102.333 120.112,102.333 120.250 C 102.333 120.388,102.226 120.500,102.095 120.500 C 101.963 120.500,101.808 120.650,101.750 120.833 C 101.692 121.017,101.537 121.167,101.405 121.167 C 101.274 121.167,101.167 121.282,101.167 121.422 C 101.167 121.562,101.054 121.720,100.917 121.773 C 100.774 121.828,100.667 122.076,100.667 122.351 C 100.667 122.722,100.590 122.833,100.333 122.833 C 100.150 122.833,100.000 122.911,100.000 123.006 C 100.000 123.100,99.775 123.398,99.500 123.667 C 99.162 123.997,99.000 124.319,99.000 124.661 C 99.000 125.056,98.927 125.167,98.667 125.167 C 98.481 125.167,98.333 125.278,98.333 125.417 C 98.333 125.554,98.221 125.667,98.083 125.667 C 97.946 125.667,97.833 125.761,97.833 125.877 C 97.833 125.992,97.683 126.180,97.500 126.295 C 97.312 126.412,97.167 126.683,97.167 126.918 C 97.167 127.176,97.072 127.333,96.917 127.333 C 96.779 127.333,96.667 127.438,96.667 127.566 C 96.667 127.693,96.554 127.841,96.417 127.894 C 96.271 127.950,96.167 128.199,96.167 128.495 C 96.167 128.833,96.084 129.000,95.917 129.000 C 95.779 129.000,95.667 129.104,95.667 129.231 C 95.667 129.357,95.517 129.500,95.333 129.548 C 95.150 129.596,95.000 129.755,95.000 129.901 C 95.000 130.047,94.921 130.167,94.825 130.167 C 94.728 130.167,94.573 130.386,94.480 130.653 C 94.386 130.921,94.203 131.181,94.072 131.231 C 93.938 131.283,93.833 131.544,93.833 131.828 C 93.833 132.166,93.751 132.333,93.583 132.333 C 93.444 132.333,93.333 132.481,93.333 132.667 C 93.333 132.854,93.222 133.000,93.079 133.000 C 92.931 133.000,92.784 133.205,92.727 133.489 C 92.673 133.758,92.525 134.019,92.398 134.067 C 92.271 134.116,92.167 134.271,92.167 134.411 C 92.167 134.552,92.054 134.667,91.917 134.667 C 91.744 134.667,91.667 134.840,91.667 135.231 C 91.667 135.654,91.584 135.816,91.333 135.882 C 91.108 135.941,91.000 136.109,91.000 136.401 C 91.000 136.674,90.908 136.833,90.750 136.833 C 90.611 136.833,90.500 136.981,90.500 137.167 C 90.500 137.350,90.421 137.500,90.325 137.500 C 90.228 137.500,90.042 137.757,89.911 138.072 C 89.779 138.387,89.596 138.691,89.503 138.748 C 89.409 138.806,89.333 139.028,89.333 139.242 C 89.333 139.456,89.221 139.674,89.083 139.727 C 88.937 139.783,88.833 140.033,88.833 140.328 C 88.833 140.666,88.751 140.833,88.583 140.833 C 88.422 140.833,88.333 140.996,88.333 141.293 C 88.333 141.573,88.203 141.835,88.000 141.961 C 87.792 142.091,87.667 142.350,87.667 142.649 C 87.667 142.988,87.569 143.153,87.333 143.215 C 87.113 143.273,87.000 143.442,87.000 143.717 C 87.000 143.945,86.888 144.174,86.750 144.227 C 86.604 144.283,86.500 144.533,86.500 144.828 C 86.500 145.166,86.417 145.333,86.250 145.333 C 86.075 145.333,86.000 145.509,86.000 145.917 C 86.000 146.324,85.925 146.500,85.750 146.500 C 85.588 146.500,85.500 146.662,85.500 146.960 C 85.500 147.239,85.369 147.502,85.167 147.628 C 84.983 147.742,84.833 148.015,84.833 148.234 C 84.833 148.452,84.721 148.674,84.583 148.727 C 84.413 148.792,84.333 149.059,84.333 149.567 C 84.333 150.164,84.268 150.332,84.000 150.417 C 83.770 150.490,83.667 150.669,83.667 150.993 C 83.667 151.258,83.557 151.506,83.417 151.560 C 83.273 151.615,83.167 151.864,83.167 152.144 C 83.167 152.412,83.065 152.670,82.941 152.718 C 82.816 152.766,82.672 153.124,82.619 153.514 C 82.567 153.904,82.406 154.289,82.262 154.370 C 82.085 154.469,82.000 154.757,82.000 155.258 C 82.000 155.806,81.935 156.000,81.750 156.000 C 81.575 156.000,81.500 156.176,81.500 156.583 C 81.500 156.991,81.425 157.167,81.250 157.167 C 81.062 157.167,81.000 157.368,81.000 157.981 C 81.000 158.654,80.943 158.809,80.667 158.882 C 80.394 158.953,80.333 159.109,80.333 159.740 C 80.333 160.260,80.255 160.541,80.091 160.603 C 79.958 160.654,79.800 161.025,79.740 161.426 C 79.680 161.827,79.526 162.243,79.399 162.348 C 79.249 162.473,79.167 162.887,79.167 163.520 C 79.167 164.280,79.111 164.500,78.917 164.500 C 78.728 164.500,78.667 164.704,78.667 165.333 C 78.667 165.963,78.606 166.167,78.417 166.167 C 78.218 166.167,78.167 166.407,78.167 167.333 C 78.167 168.216,78.110 168.500,77.936 168.500 C 77.657 168.500,77.505 169.009,77.502 169.958 C 77.501 170.476,77.433 170.667,77.250 170.667 C 77.056 170.667,77.000 170.889,77.000 171.667 C 77.000 172.444,76.926 172.741,76.667 173.000 C 76.401 173.266,76.333 173.556,76.333 174.429 C 76.333 175.180,76.255 175.602,76.083 175.774 C 75.896 175.961,75.833 176.421,75.833 177.595 C 75.833 178.881,75.788 179.167,75.583 179.167 C 75.378 179.167,75.333 179.463,75.333 180.833 C 75.333 182.147,75.284 182.500,75.101 182.500 C 74.729 182.500,74.667 182.895,74.667 185.246 C 74.667 187.064,74.622 187.482,74.417 187.560 C 74.203 187.642,74.167 188.311,74.167 192.161 C 74.167 195.054,74.107 196.667,74.000 196.667 C 73.773 196.667,73.773 203.777,74.000 203.917 C 74.104 203.981,74.167 205.670,74.167 208.432 C 74.167 212.200,74.203 212.858,74.417 212.940 C 74.622 213.018,74.667 213.436,74.667 215.254 C 74.667 217.605,74.729 218.000,75.101 218.000 C 75.286 218.000,75.333 218.387,75.333 219.899 C 75.333 221.433,75.381 221.816,75.583 221.894 C 75.777 221.968,75.833 222.292,75.833 223.328 C 75.833 224.407,75.882 224.667,76.083 224.667 C 76.285 224.667,76.333 224.928,76.333 226.016 C 76.333 227.224,76.368 227.374,76.667 227.452 C 76.959 227.528,77.000 227.679,77.000 228.686 C 77.000 229.540,77.058 229.833,77.226 229.833 C 77.388 229.833,77.479 230.196,77.549 231.120 C 77.616 232.006,77.727 232.466,77.907 232.597 C 78.078 232.722,78.167 233.052,78.167 233.560 C 78.167 234.136,78.230 234.333,78.417 234.333 C 78.613 234.333,78.667 234.565,78.667 235.422 C 78.667 236.236,78.730 236.535,78.917 236.606 C 79.086 236.671,79.167 236.937,79.167 237.426 C 79.167 237.856,79.258 238.204,79.391 238.283 C 79.515 238.357,79.663 238.716,79.721 239.083 C 79.779 239.449,79.940 239.832,80.080 239.934 C 80.238 240.050,80.333 240.386,80.333 240.826 C 80.333 241.391,80.400 241.549,80.667 241.618 C 80.943 241.691,81.000 241.846,81.000 242.519 C 81.000 243.132,81.062 243.333,81.250 243.333 C 81.435 243.333,81.500 243.528,81.500 244.089 C 81.500 244.606,81.579 244.874,81.750 244.940 C 81.893 244.995,82.000 245.244,82.000 245.523 C 82.000 245.799,82.107 246.051,82.246 246.105 C 82.394 246.161,82.537 246.529,82.601 247.016 C 82.671 247.545,82.790 247.833,82.938 247.833 C 83.081 247.833,83.167 248.022,83.167 248.339 C 83.167 248.634,83.271 248.884,83.417 248.940 C 83.554 248.992,83.668 249.234,83.669 249.476 C 83.673 250.173,83.852 250.667,84.103 250.667 C 84.248 250.667,84.333 250.853,84.333 251.172 C 84.333 251.467,84.437 251.717,84.583 251.773 C 84.726 251.828,84.833 252.076,84.833 252.351 C 84.833 252.722,84.910 252.833,85.167 252.833 C 85.437 252.833,85.500 252.944,85.500 253.422 C 85.500 253.791,85.593 254.046,85.750 254.106 C 85.893 254.161,86.000 254.410,86.000 254.684 C 86.000 255.002,86.085 255.167,86.250 255.167 C 86.429 255.167,86.500 255.349,86.500 255.808 C 86.500 256.210,86.624 256.592,86.833 256.833 C 87.017 257.045,87.167 257.281,87.167 257.359 C 87.167 257.436,87.279 257.500,87.417 257.500 C 87.582 257.500,87.667 257.665,87.667 257.989 C 87.667 258.331,87.766 258.509,88.000 258.583 C 88.234 258.657,88.333 258.836,88.333 259.178 C 88.333 259.501,88.418 259.667,88.583 259.667 C 88.751 259.667,88.833 259.834,88.833 260.172 C 88.833 260.467,88.937 260.717,89.083 260.773 C 89.227 260.828,89.333 261.077,89.333 261.356 C 89.333 261.627,89.440 261.885,89.573 261.936 C 89.705 261.986,89.861 262.247,89.920 262.514 C 89.978 262.781,90.133 263.000,90.263 263.000 C 90.414 263.000,90.500 263.178,90.500 263.492 C 90.500 263.762,90.599 264.043,90.721 264.117 C 90.842 264.190,90.990 264.381,91.049 264.542 C 91.108 264.702,91.271 264.833,91.411 264.833 C 91.584 264.833,91.667 264.995,91.667 265.333 C 91.667 265.667,91.750 265.833,91.917 265.833 C 92.068 265.833,92.167 265.988,92.167 266.224 C 92.167 266.652,92.807 267.500,93.130 267.500 C 93.245 267.500,93.333 267.719,93.333 268.005 C 93.333 268.301,93.437 268.550,93.583 268.606 C 93.721 268.659,93.833 268.809,93.833 268.940 C 93.833 269.070,93.941 269.219,94.073 269.269 C 94.205 269.320,94.361 269.580,94.420 269.847 C 94.478 270.115,94.633 270.333,94.763 270.333 C 94.893 270.333,95.000 270.446,95.000 270.583 C 95.000 270.722,95.148 270.833,95.333 270.833 C 95.601 270.833,95.667 270.944,95.667 271.399 C 95.667 271.748,95.762 272.001,95.917 272.060 C 96.054 272.113,96.167 272.271,96.167 272.411 C 96.167 272.552,96.279 272.667,96.417 272.667 C 96.583 272.667,96.667 272.833,96.667 273.167 C 96.667 273.481,96.752 273.667,96.897 273.667 C 97.024 273.667,97.167 273.817,97.215 274.000 C 97.263 274.183,97.422 274.333,97.568 274.333 C 97.714 274.333,97.833 274.446,97.833 274.583 C 97.833 274.721,97.937 274.833,98.065 274.833 C 98.197 274.833,98.343 275.083,98.406 275.417 C 98.471 275.766,98.612 276.000,98.758 276.000 C 98.891 276.000,99.000 276.115,99.000 276.255 C 99.000 276.396,99.112 276.554,99.250 276.606 C 99.387 276.659,99.500 276.807,99.500 276.934 C 99.500 277.062,99.603 277.167,99.729 277.167 C 99.855 277.167,100.003 277.392,100.058 277.667 C 100.117 277.960,100.263 278.167,100.412 278.167 C 100.556 278.167,100.667 278.312,100.667 278.500 C 100.667 278.685,100.778 278.833,100.917 278.833 C 101.054 278.833,101.167 278.917,101.167 279.018 C 101.167 279.274,101.871 279.994,102.125 279.997 C 102.240 279.999,102.333 280.169,102.333 280.376 C 102.333 280.593,102.580 280.979,102.917 281.288 C 103.238 281.582,103.500 281.900,103.500 281.995 C 103.500 282.089,103.612 282.167,103.750 282.167 C 103.888 282.167,104.000 282.282,104.000 282.422 C 104.000 282.562,104.112 282.720,104.250 282.773 C 104.388 282.826,104.500 282.973,104.500 283.101 C 104.500 283.229,104.615 283.333,104.755 283.333 C 104.896 283.333,105.054 283.446,105.106 283.583 C 105.159 283.721,105.307 283.833,105.434 283.833 C 105.562 283.833,105.667 283.986,105.667 284.172 C 105.667 284.359,105.929 284.774,106.250 285.094 C 106.571 285.415,106.833 285.724,106.833 285.780 C 106.833 285.837,107.208 286.243,107.667 286.682 C 108.125 287.122,108.500 287.560,108.500 287.657 C 108.500 287.754,108.604 287.833,108.732 287.833 C 108.860 287.833,109.008 287.946,109.060 288.083 C 109.113 288.221,109.271 288.333,109.411 288.333 C 109.552 288.333,109.667 288.448,109.667 288.589 C 109.667 288.729,109.779 288.887,109.917 288.940 C 110.054 288.992,110.167 289.140,110.167 289.268 C 110.167 289.396,110.274 289.500,110.405 289.500 C 110.537 289.500,110.692 289.650,110.750 289.833 C 110.808 290.017,110.963 290.167,111.095 290.167 C 111.226 290.167,111.333 290.279,111.333 290.417 C 111.333 290.554,111.446 290.667,111.583 290.667 C 111.721 290.667,111.833 290.779,111.833 290.917 C 111.833 291.056,111.981 291.167,112.167 291.167 C 112.350 291.167,112.500 291.250,112.500 291.352 C 112.500 291.608,113.204 292.327,113.458 292.330 C 113.573 292.332,113.667 292.446,113.667 292.583 C 113.667 292.721,113.779 292.833,113.917 292.833 C 114.056 292.833,114.167 292.981,114.167 293.167 C 114.167 293.350,114.270 293.500,114.396 293.500 C 114.522 293.500,114.988 293.875,115.433 294.333 C 115.937 294.852,116.385 295.167,116.621 295.167 C 116.847 295.167,117.000 295.268,117.000 295.417 C 117.000 295.554,117.112 295.667,117.250 295.667 C 117.388 295.667,117.500 295.750,117.500 295.852 C 117.500 296.108,118.204 296.827,118.458 296.830 C 118.573 296.832,118.667 296.932,118.667 297.052 C 118.667 297.351,119.575 298.000,119.993 298.000 C 120.184 298.000,120.333 298.109,120.333 298.250 C 120.333 298.387,120.446 298.500,120.583 298.500 C 120.721 298.500,120.833 298.612,120.833 298.750 C 120.833 298.889,120.981 299.000,121.167 299.000 C 121.350 299.000,121.501 299.094,121.503 299.208 C 121.507 299.521,122.215 300.131,122.721 300.258 C 122.966 300.319,123.167 300.474,123.167 300.601 C 123.167 300.729,123.317 300.833,123.500 300.833 C 123.685 300.833,123.833 300.944,123.833 301.083 C 123.833 301.221,123.946 301.333,124.083 301.333 C 124.221 301.333,124.333 301.446,124.333 301.583 C 124.333 301.723,124.482 301.833,124.668 301.833 C 124.853 301.833,125.132 301.983,125.289 302.167 C 125.446 302.350,125.670 302.500,125.787 302.500 C 125.904 302.500,126.000 302.612,126.000 302.750 C 126.000 302.887,126.115 303.000,126.255 303.000 C 126.396 303.000,126.552 303.108,126.602 303.240 C 126.653 303.372,126.913 303.528,127.181 303.586 C 127.448 303.645,127.667 303.800,127.667 303.930 C 127.667 304.060,127.771 304.167,127.899 304.167 C 128.027 304.167,128.171 304.272,128.221 304.401 C 128.270 304.530,128.541 304.686,128.822 304.748 C 129.103 304.809,129.333 304.966,129.333 305.097 C 129.333 305.227,129.448 305.333,129.589 305.333 C 129.729 305.333,129.887 305.446,129.940 305.583 C 129.994 305.726,130.243 305.833,130.518 305.833 C 130.835 305.833,131.000 305.919,131.000 306.083 C 131.000 306.221,131.141 306.333,131.314 306.333 C 131.488 306.333,131.667 306.482,131.715 306.667 C 131.774 306.892,131.942 307.000,132.234 307.000 C 132.508 307.000,132.667 307.092,132.667 307.250 C 132.667 307.387,132.782 307.500,132.922 307.500 C 133.062 307.500,133.220 307.610,133.271 307.745 C 133.323 307.880,133.621 308.039,133.933 308.097 C 134.255 308.158,134.500 308.304,134.500 308.435 C 134.500 308.581,134.684 308.667,135.000 308.667 C 135.333 308.667,135.500 308.750,135.500 308.917 C 135.500 309.056,135.648 309.167,135.833 309.167 C 136.019 309.167,136.167 309.278,136.167 309.417 C 136.167 309.556,136.315 309.667,136.500 309.667 C 136.683 309.667,136.983 309.817,137.167 310.000 C 137.350 310.183,137.679 310.333,137.897 310.333 C 138.154 310.333,138.325 310.451,138.382 310.667 C 138.445 310.909,138.609 311.000,138.984 311.000 C 139.332 311.000,139.500 311.082,139.500 311.250 C 139.500 311.417,139.667 311.500,140.000 311.500 C 140.275 311.500,140.500 311.577,140.500 311.672 C 140.500 311.766,140.626 311.892,140.779 311.951 C 140.932 312.010,141.195 312.195,141.362 312.362 C 141.530 312.530,141.809 312.667,141.982 312.667 C 142.156 312.667,142.341 312.779,142.394 312.917 C 142.450 313.063,142.699 313.167,142.995 313.167 C 143.333 313.167,143.500 313.249,143.500 313.417 C 143.500 313.591,143.676 313.667,144.083 313.667 C 144.471 313.667,144.667 313.745,144.667 313.899 C 144.667 314.177,145.025 314.333,145.662 314.333 C 145.920 314.333,146.171 314.439,146.221 314.568 C 146.270 314.696,146.535 314.851,146.808 314.911 C 147.082 314.971,147.347 315.128,147.398 315.260 C 147.450 315.396,147.709 315.500,147.995 315.500 C 148.333 315.500,148.500 315.583,148.500 315.750 C 148.500 315.925,148.676 316.000,149.083 316.000 C 149.491 316.000,149.667 316.075,149.667 316.250 C 149.667 316.435,149.862 316.500,150.422 316.500 C 150.939 316.500,151.207 316.579,151.273 316.750 C 151.332 316.904,151.586 317.000,151.934 317.000 C 152.389 317.000,152.500 317.065,152.500 317.333 C 152.500 317.591,152.611 317.667,152.992 317.667 C 153.270 317.667,153.548 317.783,153.633 317.934 C 153.723 318.095,154.092 318.237,154.558 318.289 C 155.061 318.346,155.333 318.457,155.333 318.605 C 155.333 318.765,155.560 318.833,156.089 318.833 C 156.606 318.833,156.874 318.912,156.940 319.083 C 157.006 319.257,157.278 319.333,157.832 319.333 C 158.488 319.333,158.643 319.392,158.715 319.667 C 158.786 319.939,158.942 320.000,159.568 320.000 C 160.137 320.000,160.333 320.064,160.333 320.250 C 160.333 320.439,160.537 320.500,161.167 320.500 C 161.796 320.500,162.000 320.561,162.000 320.750 C 162.000 320.938,162.202 321.000,162.814 321.000 C 163.488 321.000,163.643 321.057,163.715 321.333 C 163.786 321.606,163.942 321.667,164.573 321.667 C 165.104 321.667,165.374 321.744,165.440 321.917 C 165.511 322.103,165.808 322.167,166.601 322.167 C 167.397 322.167,167.667 322.225,167.667 322.397 C 167.667 322.684,168.179 322.828,169.208 322.831 C 169.800 322.833,170.000 322.897,170.000 323.083 C 170.000 323.285,170.259 323.333,171.333 323.333 C 172.407 323.333,172.667 323.382,172.667 323.583 C 172.667 323.782,172.907 323.833,173.833 323.833 C 174.759 323.833,175.000 323.885,175.000 324.083 C 175.000 324.289,175.294 324.333,176.647 324.333 C 178.154 324.333,178.302 324.362,178.382 324.667 C 178.461 324.969,178.609 325.000,179.984 325.000 C 181.278 325.000,181.549 325.049,181.833 325.333 C 182.131 325.631,182.389 325.667,184.232 325.667 C 185.914 325.667,186.315 325.713,186.394 325.917 C 186.475 326.129,187.096 326.167,190.568 326.167 C 193.108 326.167,194.686 326.230,194.750 326.333 C 194.815 326.439,196.748 326.500,200.000 326.500 C 203.252 326.500,205.185 326.439,205.250 326.333 C 205.314 326.230,206.832 326.167,209.252 326.167 C 212.422 326.167,213.175 326.123,213.283 325.933 C 213.385 325.755,213.965 325.685,215.722 325.641 C 217.683 325.592,218.059 325.540,218.240 325.292 C 218.418 325.049,218.722 325.000,220.049 325.000 C 221.498 325.000,221.654 324.969,221.750 324.667 C 221.846 324.365,222.002 324.333,223.410 324.333 C 224.638 324.333,224.984 324.281,225.060 324.083 C 225.132 323.896,225.431 323.833,226.245 323.833 C 227.101 323.833,227.333 323.780,227.333 323.583 C 227.333 323.382,227.592 323.333,228.658 323.333 C 229.604 323.333,230.022 323.268,230.117 323.105 C 230.196 322.970,230.650 322.845,231.233 322.798 C 231.885 322.745,232.285 322.625,232.418 322.443 C 232.565 322.242,232.878 322.167,233.565 322.167 C 234.252 322.167,234.537 322.098,234.606 321.917 C 234.672 321.746,234.939 321.667,235.450 321.667 C 236.058 321.667,236.214 321.604,236.285 321.333 C 236.357 321.057,236.512 321.000,237.186 321.000 C 237.798 321.000,238.000 320.938,238.000 320.750 C 238.000 320.561,238.204 320.500,238.839 320.500 C 239.430 320.500,239.705 320.426,239.773 320.250 C 239.836 320.087,240.095 320.000,240.516 320.000 C 240.983 320.000,241.222 319.907,241.372 319.667 C 241.528 319.417,241.761 319.333,242.295 319.333 C 242.777 319.333,243.042 319.252,243.106 319.083 C 243.171 318.914,243.437 318.833,243.926 318.833 C 244.356 318.833,244.704 318.742,244.783 318.609 C 244.857 318.485,245.216 318.337,245.583 318.279 C 245.949 318.221,246.332 318.060,246.434 317.920 C 246.537 317.781,246.825 317.667,247.076 317.667 C 247.391 317.667,247.558 317.564,247.618 317.333 C 247.684 317.083,247.846 317.000,248.269 317.000 C 248.660 317.000,248.833 316.923,248.833 316.750 C 248.833 316.561,249.037 316.500,249.667 316.500 C 250.296 316.500,250.500 316.439,250.500 316.250 C 250.500 316.083,250.667 316.000,251.000 316.000 C 251.333 316.000,251.500 315.917,251.500 315.750 C 251.500 315.583,251.667 315.500,252.000 315.500 C 252.278 315.500,252.648 315.352,252.833 315.167 C 253.017 314.983,253.317 314.833,253.500 314.833 C 253.685 314.833,253.833 314.722,253.833 314.583 C 253.833 314.410,254.008 314.333,254.403 314.333 C 255.137 314.333,255.500 314.190,255.500 313.899 C 255.500 313.751,255.684 313.667,256.005 313.667 C 256.301 313.667,256.550 313.563,256.606 313.417 C 256.660 313.277,256.908 313.167,257.167 313.167 C 257.422 313.167,257.670 313.065,257.718 312.940 C 257.766 312.816,258.036 312.668,258.319 312.611 C 258.624 312.550,258.833 312.405,258.833 312.254 C 258.833 312.111,258.979 312.000,259.167 312.000 C 259.352 312.000,259.500 311.889,259.500 311.750 C 259.500 311.583,259.667 311.500,260.005 311.500 C 260.301 311.500,260.550 311.396,260.606 311.250 C 260.659 311.112,260.889 311.000,261.117 311.000 C 261.391 311.000,261.561 310.887,261.618 310.667 C 261.680 310.430,261.846 310.333,262.191 310.333 C 262.460 310.333,262.718 310.226,262.769 310.094 C 262.820 309.962,263.085 309.805,263.359 309.744 C 263.632 309.684,263.896 309.530,263.946 309.401 C 263.995 309.272,264.140 309.167,264.268 309.167 C 264.396 309.167,264.500 309.054,264.500 308.917 C 264.500 308.742,264.676 308.667,265.083 308.667 C 265.491 308.667,265.667 308.591,265.667 308.417 C 265.667 308.277,265.815 308.167,266.002 308.167 C 266.186 308.167,266.465 308.017,266.622 307.833 C 266.779 307.650,267.003 307.500,267.120 307.500 C 267.238 307.500,267.333 307.387,267.333 307.250 C 267.333 307.112,267.477 307.000,267.653 307.000 C 268.150 307.000,268.500 306.820,268.500 306.566 C 268.500 306.438,268.612 306.333,268.750 306.333 C 268.887 306.333,269.000 306.221,269.000 306.083 C 269.000 305.916,269.167 305.833,269.505 305.833 C 269.801 305.833,270.050 305.729,270.106 305.583 C 270.159 305.446,270.309 305.333,270.440 305.333 C 270.570 305.333,270.719 305.225,270.769 305.094 C 270.820 304.962,271.080 304.806,271.347 304.747 C 271.615 304.688,271.833 304.534,271.833 304.403 C 271.833 304.273,271.946 304.167,272.083 304.167 C 272.221 304.167,272.333 304.063,272.333 303.935 C 272.333 303.803,272.583 303.657,272.917 303.594 C 273.266 303.529,273.500 303.388,273.500 303.242 C 273.500 303.109,273.615 303.000,273.755 303.000 C 273.896 303.000,274.054 302.887,274.106 302.750 C 274.159 302.612,274.307 302.500,274.434 302.500 C 274.562 302.500,274.667 302.396,274.667 302.268 C 274.667 302.013,275.017 301.833,275.514 301.833 C 275.689 301.833,275.833 301.721,275.833 301.583 C 275.833 301.446,275.946 301.333,276.083 301.333 C 276.221 301.333,276.333 301.221,276.333 301.083 C 276.333 300.946,276.446 300.833,276.583 300.833 C 276.721 300.833,276.833 300.727,276.833 300.597 C 276.833 300.466,277.058 300.310,277.332 300.250 C 277.607 300.190,277.888 300.047,277.957 299.933 C 278.027 299.818,278.215 299.677,278.375 299.618 C 278.535 299.559,278.667 299.396,278.667 299.255 C 278.667 299.115,278.779 299.000,278.917 299.000 C 279.054 299.000,279.167 298.887,279.167 298.750 C 279.167 298.612,279.279 298.500,279.417 298.500 C 279.554 298.500,279.667 298.387,279.667 298.250 C 279.667 298.088,279.829 298.000,280.126 298.000 C 280.438 298.000,280.757 297.813,281.121 297.417 C 281.415 297.096,281.734 296.833,281.828 296.833 C 281.923 296.833,282.000 296.729,282.000 296.601 C 282.000 296.473,282.112 296.326,282.250 296.273 C 282.387 296.220,282.500 296.062,282.500 295.922 C 282.500 295.778,282.645 295.667,282.833 295.667 C 283.019 295.667,283.167 295.556,283.167 295.417 C 283.167 295.279,283.279 295.167,283.417 295.167 C 283.554 295.167,283.667 295.054,283.667 294.917 C 283.667 294.776,283.815 294.667,284.006 294.667 C 284.192 294.667,284.607 294.404,284.928 294.083 C 285.249 293.763,285.579 293.500,285.661 293.500 C 285.743 293.500,285.858 293.350,285.917 293.167 C 285.975 292.983,286.130 292.833,286.261 292.833 C 286.393 292.833,286.500 292.721,286.500 292.583 C 286.500 292.446,286.612 292.333,286.750 292.333 C 286.887 292.333,287.000 292.250,287.000 292.148 C 287.000 291.892,287.704 291.173,287.958 291.170 C 288.073 291.168,288.167 291.054,288.167 290.917 C 288.167 290.779,288.260 290.665,288.375 290.664 C 288.629 290.660,289.333 289.941,289.333 289.685 C 289.333 289.583,289.446 289.500,289.583 289.500 C 289.721 289.500,289.833 289.396,289.833 289.268 C 289.833 289.140,289.946 288.992,290.083 288.940 C 290.221 288.887,290.333 288.729,290.333 288.589 C 290.333 288.444,290.478 288.333,290.667 288.333 C 290.852 288.333,291.000 288.222,291.000 288.083 C 291.000 287.946,291.112 287.833,291.250 287.833 C 291.387 287.833,291.500 287.721,291.500 287.583 C 291.500 287.446,291.620 287.333,291.766 287.333 C 291.912 287.333,292.070 287.183,292.118 287.000 C 292.166 286.817,292.309 286.667,292.436 286.667 C 292.563 286.667,292.667 286.554,292.667 286.417 C 292.667 286.279,292.779 286.167,292.917 286.167 C 293.054 286.167,293.167 286.090,293.167 285.997 C 293.167 285.904,293.429 285.573,293.750 285.261 C 294.120 284.902,294.333 284.537,294.333 284.264 C 294.333 283.944,294.419 283.833,294.667 283.833 C 294.852 283.833,295.000 283.722,295.000 283.583 C 295.000 283.446,295.112 283.333,295.250 283.333 C 295.387 283.333,295.500 283.221,295.500 283.083 C 295.500 282.946,295.620 282.833,295.766 282.833 C 295.912 282.833,296.070 282.683,296.118 282.500 C 296.166 282.317,296.309 282.167,296.436 282.167 C 296.563 282.167,296.667 282.062,296.667 281.934 C 296.667 281.807,296.779 281.659,296.917 281.606 C 297.054 281.554,297.167 281.396,297.167 281.255 C 297.167 281.115,297.279 281.000,297.417 281.000 C 297.583 281.000,297.667 280.833,297.667 280.500 C 297.667 280.225,297.750 280.000,297.852 280.000 C 298.085 280.000,299.500 278.576,299.500 278.341 C 299.500 278.245,299.612 278.167,299.750 278.167 C 299.917 278.167,300.000 278.000,300.000 277.667 C 300.000 277.333,300.083 277.167,300.250 277.167 C 300.387 277.167,300.500 277.054,300.500 276.917 C 300.500 276.779,300.615 276.667,300.755 276.667 C 300.896 276.667,301.059 276.535,301.118 276.375 C 301.177 276.215,301.324 276.023,301.446 275.950 C 301.567 275.877,301.667 275.595,301.667 275.325 C 301.667 275.044,301.756 274.832,301.875 274.830 C 302.129 274.827,302.833 274.108,302.833 273.852 C 302.833 273.750,302.946 273.667,303.083 273.667 C 303.238 273.667,303.333 273.510,303.333 273.256 C 303.333 273.016,303.472 272.771,303.667 272.667 C 303.850 272.569,304.000 272.386,304.000 272.262 C 304.000 272.137,304.112 271.992,304.250 271.940 C 304.396 271.884,304.500 271.634,304.500 271.339 C 304.500 271.001,304.583 270.833,304.750 270.833 C 304.887 270.833,305.000 270.721,305.000 270.583 C 305.000 270.446,305.107 270.333,305.237 270.333 C 305.367 270.333,305.522 270.115,305.580 269.847 C 305.639 269.580,305.795 269.320,305.927 269.269 C 306.059 269.219,306.167 269.100,306.167 269.005 C 306.167 268.911,306.317 268.683,306.500 268.500 C 306.683 268.317,306.833 268.017,306.833 267.833 C 306.833 267.648,306.944 267.500,307.083 267.500 C 307.250 267.500,307.333 267.333,307.333 267.000 C 307.333 266.667,307.417 266.500,307.583 266.500 C 307.722 266.500,307.833 266.352,307.833 266.167 C 307.833 265.981,307.944 265.833,308.083 265.833 C 308.223 265.833,308.333 265.685,308.333 265.498 C 308.333 265.314,308.483 265.035,308.667 264.878 C 308.850 264.721,309.000 264.389,309.000 264.141 C 309.000 263.836,309.108 263.655,309.333 263.583 C 309.517 263.525,309.667 263.378,309.667 263.257 C 309.667 263.135,309.779 262.992,309.917 262.940 C 310.054 262.887,310.167 262.662,310.167 262.440 C 310.167 262.217,310.279 261.992,310.417 261.940 C 310.563 261.884,310.667 261.634,310.667 261.339 C 310.667 261.018,310.751 260.833,310.899 260.833 C 311.154 260.833,311.333 260.483,311.333 259.986 C 311.333 259.811,311.446 259.667,311.583 259.667 C 311.748 259.667,311.833 259.502,311.833 259.184 C 311.833 258.910,311.941 258.661,312.083 258.606 C 312.226 258.551,312.333 258.303,312.333 258.025 C 312.333 257.679,312.430 257.514,312.667 257.452 C 312.906 257.389,313.000 257.224,313.000 256.867 C 313.000 256.578,313.105 256.329,313.250 256.273 C 313.393 256.218,313.500 255.969,313.500 255.691 C 313.500 255.346,313.596 255.180,313.833 255.118 C 314.060 255.059,314.167 254.891,314.167 254.594 C 314.167 254.353,314.279 254.113,314.417 254.060 C 314.571 254.001,314.667 253.748,314.667 253.399 C 314.667 253.007,314.744 252.833,314.917 252.833 C 315.083 252.833,315.167 252.667,315.167 252.333 C 315.167 252.000,315.250 251.833,315.417 251.833 C 315.591 251.833,315.667 251.657,315.667 251.250 C 315.667 250.863,315.745 250.667,315.899 250.667 C 316.190 250.667,316.333 250.304,316.333 249.570 C 316.333 249.194,316.412 249.000,316.566 249.000 C 316.817 249.000,317.000 248.651,317.000 248.171 C 317.000 248.005,317.112 247.826,317.250 247.773 C 317.421 247.707,317.500 247.439,317.500 246.922 C 317.500 246.362,317.565 246.167,317.750 246.167 C 317.925 246.167,318.000 245.991,318.000 245.583 C 318.000 245.176,318.075 245.000,318.250 245.000 C 318.438 245.000,318.500 244.798,318.500 244.186 C 318.500 243.512,318.557 243.357,318.833 243.285 C 319.106 243.214,319.167 243.058,319.167 242.432 C 319.167 241.863,319.231 241.667,319.417 241.667 C 319.605 241.667,319.667 241.465,319.667 240.853 C 319.667 240.179,319.724 240.024,320.000 239.952 C 320.271 239.881,320.333 239.724,320.333 239.117 C 320.333 238.606,320.413 238.339,320.583 238.273 C 320.754 238.208,320.833 237.940,320.833 237.430 C 320.833 236.941,320.919 236.635,321.082 236.544 C 321.239 236.456,321.371 236.023,321.439 235.369 C 321.513 234.661,321.619 234.333,321.774 234.333 C 321.943 234.333,322.000 234.038,322.000 233.167 C 322.000 232.241,322.052 232.000,322.250 232.000 C 322.447 232.000,322.500 231.769,322.500 230.917 C 322.500 230.065,322.553 229.833,322.750 229.833 C 322.948 229.833,323.000 229.595,323.000 228.686 C 323.000 227.679,323.041 227.528,323.333 227.452 C 323.632 227.374,323.667 227.224,323.667 226.016 C 323.667 224.978,323.720 224.667,323.897 224.667 C 324.216 224.667,324.328 224.136,324.331 222.625 C 324.333 221.589,324.383 221.333,324.583 221.333 C 324.789 221.333,324.833 221.039,324.833 219.684 C 324.833 218.373,324.884 218.016,325.083 217.940 C 325.290 217.861,325.333 217.421,325.333 215.422 C 325.333 213.380,325.373 213.000,325.583 213.000 C 325.800 213.000,325.833 212.324,325.833 207.917 C 325.833 204.639,325.893 202.833,326.000 202.833 C 326.104 202.833,326.167 201.861,326.167 200.250 C 326.167 198.639,326.104 197.667,326.000 197.667 C 325.893 197.667,325.833 195.887,325.833 192.661 C 325.833 188.366,325.798 187.643,325.583 187.560 C 325.377 187.481,325.333 187.043,325.333 185.060 C 325.333 183.077,325.290 182.639,325.083 182.560 C 324.886 182.484,324.833 182.138,324.833 180.907 C 324.833 179.769,324.772 179.314,324.606 179.217 C 324.451 179.125,324.352 178.586,324.292 177.512 C 324.227 176.330,324.138 175.891,323.936 175.743 C 323.735 175.596,323.667 175.266,323.667 174.438 C 323.667 173.536,323.605 173.277,323.333 173.045 C 323.066 172.816,323.000 172.553,323.000 171.713 C 323.000 170.894,322.946 170.667,322.750 170.667 C 322.553 170.667,322.500 170.435,322.500 169.583 C 322.500 168.731,322.447 168.500,322.250 168.500 C 322.053 168.500,322.000 168.268,322.000 167.411 C 322.000 166.598,321.937 166.299,321.750 166.227 C 321.597 166.168,321.500 165.916,321.500 165.579 C 321.500 164.862,321.354 164.500,321.066 164.500 C 320.893 164.500,320.833 164.247,320.833 163.520 C 320.833 162.853,320.754 162.475,320.583 162.333 C 320.440 162.215,320.333 161.851,320.333 161.485 C 320.333 161.016,320.245 160.798,320.000 160.667 C 319.735 160.525,319.667 160.318,319.667 159.661 C 319.667 159.036,319.605 158.833,319.417 158.833 C 319.236 158.833,319.167 158.648,319.167 158.168 C 319.167 157.683,319.076 157.446,318.833 157.295 C 318.611 157.156,318.500 156.906,318.500 156.543 C 318.500 156.171,318.421 156.000,318.250 156.000 C 318.061 156.000,318.000 155.796,318.000 155.167 C 318.000 154.537,317.939 154.333,317.750 154.333 C 317.570 154.333,317.500 154.149,317.500 153.679 C 317.500 153.318,317.391 152.915,317.258 152.782 C 317.125 152.649,316.966 152.338,316.903 152.090 C 316.841 151.842,316.688 151.600,316.562 151.552 C 316.436 151.504,316.333 151.252,316.333 150.993 C 316.333 150.669,316.230 150.490,316.000 150.417 C 315.732 150.332,315.667 150.164,315.667 149.567 C 315.667 149.059,315.587 148.792,315.417 148.727 C 315.277 148.673,315.167 148.426,315.167 148.167 C 315.167 147.908,315.056 147.660,314.917 147.606 C 314.771 147.550,314.667 147.301,314.667 147.005 C 314.667 146.667,314.584 146.500,314.417 146.500 C 314.248 146.500,314.167 146.332,314.167 145.984 C 314.167 145.609,314.076 145.445,313.833 145.382 C 313.583 145.316,313.500 145.154,313.500 144.731 C 313.500 144.340,313.423 144.167,313.250 144.167 C 313.083 144.167,313.000 144.000,313.000 143.667 C 313.000 143.278,312.926 143.167,312.667 143.167 C 312.399 143.167,312.333 143.056,312.333 142.601 C 312.333 142.252,312.238 141.999,312.083 141.940 C 311.937 141.884,311.833 141.634,311.833 141.339 C 311.833 141.001,311.751 140.833,311.583 140.833 C 311.428 140.833,311.333 140.676,311.333 140.418 C 311.333 140.183,311.188 139.912,311.000 139.795 C 310.797 139.668,310.667 139.406,310.667 139.127 C 310.667 138.829,310.578 138.667,310.417 138.667 C 310.278 138.667,310.167 138.519,310.167 138.333 C 310.167 138.148,310.056 138.000,309.917 138.000 C 309.779 138.000,309.667 137.856,309.667 137.680 C 309.667 137.184,309.487 136.833,309.232 136.833 C 309.085 136.833,309.000 136.650,309.000 136.333 C 309.000 136.017,308.915 135.833,308.768 135.833 C 308.513 135.833,308.333 135.483,308.333 134.986 C 308.333 134.811,308.221 134.667,308.083 134.667 C 307.944 134.667,307.833 134.519,307.833 134.333 C 307.833 134.148,307.722 134.000,307.583 134.000 C 307.417 134.000,307.333 133.833,307.333 133.500 C 307.333 133.167,307.250 133.000,307.083 133.000 C 306.946 133.000,306.833 132.904,306.833 132.787 C 306.833 132.670,306.683 132.446,306.500 132.289 C 306.317 132.132,306.167 131.882,306.167 131.733 C 306.167 131.411,305.503 130.674,305.208 130.670 C 305.088 130.668,305.000 130.453,305.000 130.161 C 305.000 129.866,304.896 129.616,304.750 129.560 C 304.612 129.508,304.500 129.360,304.500 129.232 C 304.500 129.104,304.387 129.000,304.250 129.000 C 304.082 129.000,304.000 128.832,304.000 128.484 C 304.000 128.109,303.909 127.945,303.667 127.882 C 303.483 127.834,303.333 127.691,303.333 127.564 C 303.333 127.437,303.221 127.333,303.083 127.333 C 302.943 127.333,302.833 127.184,302.833 126.993 C 302.833 126.575,302.184 125.667,301.885 125.667 C 301.765 125.667,301.667 125.554,301.667 125.417 C 301.667 125.279,301.554 125.167,301.417 125.167 C 301.251 125.167,301.167 125.001,301.167 124.673 C 301.167 124.349,301.052 124.117,300.833 124.000 C 300.650 123.902,300.500 123.712,300.500 123.577 C 300.500 123.443,300.387 123.333,300.250 123.333 C 300.112 123.333,300.000 123.221,300.000 123.083 C 300.000 122.946,299.887 122.833,299.750 122.833 C 299.595 122.833,299.500 122.676,299.500 122.418 C 299.500 122.183,299.355 121.912,299.167 121.795 C 298.983 121.680,298.833 121.492,298.833 121.377 C 298.833 121.261,298.721 121.167,298.583 121.167 C 298.446 121.167,298.333 121.047,298.333 120.901 C 298.333 120.755,298.183 120.596,298.000 120.548 C 297.817 120.500,297.667 120.357,297.667 120.231 C 297.667 120.104,297.554 120.000,297.417 120.000 C 297.258 120.000,297.167 119.840,297.167 119.564 C 297.167 119.120,296.066 117.833,295.686 117.833 C 295.584 117.833,295.500 117.683,295.500 117.500 C 295.500 117.317,295.428 117.167,295.341 117.167 C 295.134 117.167,294.333 116.366,294.333 116.159 C 294.333 116.072,294.221 116.000,294.083 116.000 C 293.946 116.000,293.833 115.888,293.833 115.750 C 293.833 115.612,293.727 115.500,293.597 115.500 C 293.466 115.500,293.310 115.275,293.250 115.000 C 293.190 114.725,293.034 114.500,292.903 114.500 C 292.773 114.500,292.667 114.419,292.667 114.320 C 292.667 114.085,290.748 112.167,290.513 112.167 C 290.414 112.167,290.333 112.017,290.333 111.833 C 290.333 111.648,290.222 111.500,290.083 111.500 C 289.946 111.500,289.833 111.388,289.833 111.250 C 289.833 111.112,289.721 111.000,289.583 111.000 C 289.446 111.000,289.333 110.888,289.333 110.750 C 289.333 110.612,289.221 110.500,289.083 110.500 C 288.946 110.500,288.833 110.380,288.833 110.234 C 288.833 110.088,288.689 109.931,288.512 109.885 C 288.335 109.838,288.149 109.695,288.100 109.567 C 288.051 109.438,287.896 109.333,287.755 109.333 C 287.615 109.333,287.500 109.247,287.500 109.142 C 287.500 108.835,285.706 107.183,285.249 107.068 C 285.020 107.011,284.833 106.859,284.833 106.732 C 284.833 106.604,284.726 106.500,284.595 106.500 C 284.463 106.500,284.308 106.350,284.250 106.167 C 284.192 105.983,284.037 105.833,283.905 105.833 C 283.774 105.833,283.667 105.721,283.667 105.583 C 283.667 105.446,283.554 105.333,283.417 105.333 C 283.279 105.333,283.167 105.221,283.167 105.083 C 283.167 104.944,283.019 104.833,282.833 104.833 C 282.650 104.833,282.500 104.761,282.500 104.673 C 282.500 104.422,281.168 103.167,280.902 103.167 C 280.771 103.167,280.535 103.017,280.378 102.833 C 280.221 102.650,279.997 102.500,279.880 102.500 C 279.762 102.500,279.667 102.388,279.667 102.250 C 279.667 102.112,279.554 102.000,279.417 102.000 C 279.279 102.000,279.167 101.902,279.167 101.781 C 279.167 101.483,278.258 100.833,277.840 100.833 C 277.649 100.833,277.500 100.724,277.500 100.583 C 277.500 100.444,277.352 100.333,277.167 100.333 C 276.983 100.333,276.833 100.242,276.833 100.130 C 276.833 99.832,275.999 99.167,275.625 99.167 C 275.442 99.167,275.264 99.022,275.215 98.833 C 275.167 98.650,275.032 98.500,274.915 98.500 C 274.798 98.500,274.659 98.388,274.606 98.250 C 274.554 98.112,274.404 98.000,274.273 98.000 C 274.142 98.000,273.992 97.888,273.940 97.750 C 273.887 97.612,273.654 97.500,273.422 97.500 C 273.158 97.500,273.000 97.406,273.000 97.250 C 273.000 97.112,272.859 97.000,272.686 97.000 C 272.512 97.000,272.333 96.851,272.285 96.667 C 272.226 96.441,272.058 96.333,271.766 96.333 C 271.502 96.333,271.333 96.240,271.333 96.095 C 271.333 95.963,271.190 95.810,271.015 95.755 C 270.841 95.699,270.655 95.544,270.604 95.410 C 270.550 95.271,270.295 95.167,270.005 95.167 C 269.667 95.167,269.500 95.084,269.500 94.917 C 269.500 94.779,269.387 94.667,269.250 94.667 C 269.112 94.667,269.000 94.554,269.000 94.417 C 269.000 94.262,268.843 94.167,268.589 94.167 C 268.349 94.167,268.104 94.028,268.000 93.833 C 267.902 93.650,267.712 93.500,267.577 93.500 C 267.443 93.500,267.333 93.388,267.333 93.250 C 267.333 93.075,267.157 93.000,266.750 93.000 C 266.403 93.000,266.167 92.918,266.167 92.797 C 266.167 92.474,265.319 91.833,264.891 91.833 C 264.664 91.833,264.500 91.734,264.500 91.597 C 264.500 91.466,264.270 91.309,263.989 91.248 C 263.708 91.186,263.437 91.030,263.388 90.901 C 263.338 90.772,263.078 90.667,262.810 90.667 C 262.531 90.667,262.282 90.560,262.227 90.417 C 262.174 90.279,262.027 90.167,261.899 90.167 C 261.771 90.167,261.667 90.054,261.667 89.917 C 261.667 89.755,261.504 89.667,261.207 89.667 C 260.927 89.667,260.665 89.536,260.539 89.333 C 260.424 89.150,260.152 89.000,259.933 89.000 C 259.715 89.000,259.495 88.895,259.446 88.766 C 259.396 88.637,259.132 88.482,258.859 88.422 C 258.585 88.362,258.320 88.205,258.269 88.073 C 258.217 87.937,257.958 87.833,257.672 87.833 C 257.334 87.833,257.167 87.751,257.167 87.583 C 257.167 87.419,257.002 87.333,256.684 87.333 C 256.410 87.333,256.161 87.226,256.106 87.083 C 256.053 86.944,255.805 86.833,255.545 86.833 C 255.261 86.833,254.999 86.704,254.872 86.500 C 254.758 86.317,254.485 86.167,254.266 86.167 C 254.048 86.167,253.826 86.054,253.773 85.917 C 253.717 85.771,253.467 85.667,253.172 85.667 C 252.841 85.667,252.667 85.583,252.667 85.424 C 252.667 85.280,252.435 85.138,252.095 85.075 C 251.780 85.016,251.483 84.862,251.433 84.734 C 251.377 84.586,251.094 84.500,250.667 84.500 C 250.219 84.500,249.957 84.415,249.894 84.250 C 249.839 84.108,249.591 84.000,249.321 84.000 C 249.016 84.000,248.781 83.881,248.667 83.667 C 248.536 83.422,248.318 83.333,247.845 83.333 C 247.428 83.333,247.169 83.246,247.106 83.083 C 247.051 82.940,246.803 82.833,246.523 82.833 C 246.244 82.833,245.995 82.727,245.940 82.583 C 245.872 82.407,245.597 82.333,245.005 82.333 C 244.278 82.333,244.167 82.289,244.167 82.000 C 244.167 81.717,244.056 81.667,243.434 81.667 C 242.967 81.667,242.671 81.584,242.614 81.438 C 242.566 81.312,242.264 81.159,241.942 81.099 C 241.621 81.039,241.332 80.912,241.300 80.817 C 241.269 80.723,240.919 80.602,240.524 80.549 C 240.128 80.496,239.766 80.350,239.718 80.226 C 239.657 80.068,239.309 80.000,238.566 80.000 C 237.730 80.000,237.500 79.946,237.500 79.750 C 237.500 79.561,237.296 79.500,236.667 79.500 C 236.037 79.500,235.833 79.439,235.833 79.250 C 235.833 79.059,235.623 79.000,234.936 79.000 C 234.179 79.000,234.025 78.948,233.952 78.667 C 233.877 78.379,233.724 78.333,232.849 78.333 C 232.095 78.333,231.833 78.274,231.833 78.103 C 231.833 77.825,231.325 77.672,230.395 77.669 C 229.990 77.668,229.622 77.564,229.500 77.417 C 229.350 77.236,228.953 77.167,228.063 77.167 C 227.081 77.167,226.833 77.116,226.833 76.917 C 226.833 76.714,226.565 76.667,225.417 76.667 C 224.317 76.667,224.000 76.615,224.000 76.434 C 224.000 76.099,223.620 76.000,222.338 76.000 C 221.482 76.000,221.179 75.938,221.106 75.750 C 221.029 75.549,220.652 75.500,219.167 75.500 C 217.681 75.500,217.304 75.451,217.227 75.250 C 217.148 75.043,216.701 75.000,214.649 75.000 C 213.105 75.000,212.167 74.937,212.167 74.833 C 212.167 74.724,208.028 74.667,200.083 74.667 C 192.139 74.667,188.000 74.724,188.000 74.833 M203.974 112.725 C 222.195 114.894,237.583 125.417,246.486 141.795 C 247.821 144.251,249.663 148.389,249.665 148.938 C 249.668 149.614,249.469 149.635,242.083 149.737 C 238.142 149.791,232.742 149.874,230.083 149.921 C 224.465 150.021,224.737 150.085,223.766 148.417 C 222.656 146.510,218.290 142.247,215.686 140.529 C 211.145 137.533,207.115 136.074,201.760 135.489 C 199.298 135.220,175.682 135.194,172.071 135.457 C 161.669 136.213,153.010 131.378,148.850 122.491 C 147.131 118.818,146.090 113.540,147.017 113.195 C 147.237 113.113,155.742 112.958,165.917 112.851 C 185.277 112.648,192.363 112.526,192.496 112.393 C 192.691 112.198,201.745 112.460,203.974 112.725 M251.390 154.748 C 251.771 155.128,252.497 158.942,252.829 162.309 C 253.345 167.525,252.740 177.182,251.869 177.647 C 251.712 177.731,248.508 177.846,244.750 177.901 C 240.992 177.957,235.921 178.045,233.482 178.097 C 228.663 178.199,228.354 178.147,228.548 177.265 C 230.142 169.982,230.043 163.696,228.242 157.819 C 228.005 157.048,227.726 156.136,227.622 155.793 C 227.302 154.744,226.993 154.785,236.121 154.667 C 251.089 154.472,251.115 154.472,251.390 154.748 M222.618 155.496 C 223.305 156.298,224.575 160.396,225.020 163.250 C 225.889 168.816,224.534 177.991,222.780 178.422 C 222.580 178.471,207.829 178.490,190.000 178.463 L 157.583 178.415 156.283 178.046 C 144.815 174.785,144.890 158.512,156.387 155.499 C 158.310 154.994,222.187 154.992,222.618 155.496 M250.523 182.988 L 250.917 183.310 250.438 184.697 C 244.964 200.539,235.540 211.064,220.434 218.205 C 213.980 221.256,212.325 223.307,212.337 228.243 C 212.345 231.526,212.270 231.413,230.823 256.156 C 237.108 264.538,243.342 272.863,244.676 274.656 C 246.010 276.449,248.541 279.819,250.301 282.144 C 252.060 284.469,253.500 286.503,253.500 286.665 C 253.500 287.426,251.981 287.793,250.312 287.436 C 249.636 287.291,247.883 287.021,246.417 286.835 C 233.377 285.181,221.890 279.357,212.667 269.721 C 210.183 267.127,207.027 263.082,199.425 252.750 C 185.992 234.492,184.247 232.570,177.574 228.679 C 170.910 224.794,165.589 223.638,154.655 223.701 C 147.664 223.742,148.000 223.796,148.001 222.615 C 148.007 214.006,154.824 204.827,163.359 201.934 C 166.468 200.880,168.010 200.795,189.083 200.504 C 206.184 200.269,208.280 199.824,216.082 194.770 C 221.050 191.552,222.512 190.016,225.346 185.035 C 226.055 183.789,226.529 183.130,226.750 183.085 C 226.933 183.048,229.521 182.970,232.500 182.912 C 235.479 182.853,237.948 182.774,237.986 182.736 C 238.272 182.450,250.157 182.689,250.523 182.988 " stroke="none" fill="#d32b43" fill-rule="evenodd"></path></g></svg>