<?xml version="1.0" standalone="no"?>
<!DOCTYPE svg PUBLIC "-//W3C//DTD SVG 20010904//EN"
 "http://www.w3.org/TR/2001/REC-SVG-20010904/DTD/svg10.dtd">
<svg version="1.0" xmlns="http://www.w3.org/2000/svg"
 width="851.000000pt" height="248.000000pt" viewBox="0 0 851.000000 248.000000"
 preserveAspectRatio="xMidYMid meet">

<g transform="translate(0.000000,248.000000) scale(0.100000,-0.100000)"
fill="#000000" stroke="none">
<path d="M971 1834 c-219 -59 -388 -230 -445 -450 -20 -79 -21 -232 -1 -309
53 -210 225 -387 433 -449 123 -36 277 -30 400 16 29 11 86 42 127 69 207 139
310 393 261 643 -45 226 -230 422 -453 480 -76 20 -248 20 -322 0z m274 -191
c40 -21 88 -67 118 -113 29 -43 23 -50 -46 -50 -53 0 -67 4 -83 21 -33 38 -77
49 -188 49 -99 0 -106 2 -136 27 -34 28 -54 68 -44 85 4 6 69 8 173 6 147 -3
171 -6 206 -25z m4 -197 c7 -8 11 -36 9 -63 l-3 -48 -55 -3 c-104 -7 -299 9
-315 25 -23 22 -19 69 7 87 31 22 339 23 357 2z m149 -48 l3 -58 -63 0 -64 0
-1 60 -2 61 62 -3 62 -3 3 -57z m-13 -100 c-13 -45 -62 -104 -123 -146 -38
-27 -62 -51 -62 -62 0 -10 46 -80 101 -155 56 -75 99 -139 95 -142 -12 -13
-116 19 -155 48 -23 16 -63 57 -89 91 -112 148 -155 178 -251 178 -44 0 -41
32 8 81 l39 39 93 0 c109 1 164 17 199 59 23 27 31 29 88 30 61 1 63 0 57 -21z"/>
<path d="M2185 1471 c-183 -85 -163 -367 31 -421 87 -25 207 12 248 74 20 31
20 36 0 36 -9 0 -34 -16 -55 -34 -85 -77 -208 -69 -275 19 -38 50 -46 153 -15
212 54 108 188 135 279 58 22 -19 50 -35 62 -35 l23 0 -25 32 c-56 73 -184
100 -273 59z"/>
<path d="M4240 1265 l0 -225 25 0 c25 0 25 0 25 95 l0 95 33 0 c30 0 36 -8 92
-95 53 -84 63 -95 88 -95 35 0 33 7 -21 88 -67 99 -67 99 -29 116 51 21 77 60
77 116 0 93 -57 130 -200 130 l-90 0 0 -225z m221 156 c20 -25 25 -81 9 -111
-13 -24 -62 -40 -126 -40 l-54 0 0 91 0 91 76 -4 c65 -3 79 -7 95 -27z"/>
<path d="M3618 1438 c-2 -36 -7 -44 -25 -46 -32 -5 -30 -32 2 -32 l25 0 0
-134 c0 -161 6 -173 88 -183 44 -5 52 -3 52 11 0 11 -9 16 -31 16 -66 0 -69 6
-69 155 l0 134 47 3 c56 4 73 28 20 28 -57 0 -67 8 -67 51 0 32 -4 39 -19 39
-16 0 -20 -8 -23 -42z"/>
<path d="M2666 1375 c-34 -23 -36 -23 -36 -5 0 13 -7 20 -20 20 -19 0 -20 -7
-20 -175 0 -168 1 -175 20 -175 19 0 20 7 20 131 l0 131 29 29 c17 17 40 29
55 29 19 0 26 5 26 20 0 28 -29 26 -74 -5z"/>
<path d="M3285 1384 c-16 -8 -40 -25 -52 -36 l-23 -21 0 31 c0 25 -4 32 -20
32 -19 0 -20 -7 -20 -260 0 -253 1 -260 20 -260 19 0 20 7 20 122 l0 122 28
-26 c39 -37 65 -48 114 -48 94 1 168 80 168 180 0 129 -129 219 -235 164z
m132 -39 c110 -72 69 -258 -61 -272 -39 -5 -51 -1 -81 21 -50 38 -68 79 -63
138 11 111 118 170 205 113z"/>
<path d="M3910 1389 c-65 -26 -103 -90 -104 -175 -1 -50 4 -68 26 -101 48 -73
144 -94 228 -50 117 62 119 249 4 314 -42 24 -110 29 -154 12z m123 -34 c46
-23 70 -61 75 -120 8 -95 -49 -165 -134 -165 -56 0 -98 30 -119 84 -51 133 60
258 178 201z"/>
<path d="M2790 1382 c0 -4 30 -81 66 -172 l66 -164 -26 -65 c-14 -37 -28 -74
-32 -83 -4 -13 -1 -18 12 -18 26 0 231 503 208 508 -9 2 -18 2 -20 -1 -3 -3
-29 -67 -58 -143 -30 -77 -57 -139 -62 -139 -5 0 -33 64 -64 143 -42 108 -59
142 -72 142 -10 0 -18 -4 -18 -8z"/>
</g>
</svg>
